<?xml version="1.0" encoding="UTF-8" standalone="no"?>
<svg
   xmlns:dc="http://purl.org/dc/elements/1.1/"
   xmlns:cc="http://creativecommons.org/ns#"
   xmlns:rdf="http://www.w3.org/1999/02/22-rdf-syntax-ns#"
   xmlns:svg="http://www.w3.org/2000/svg"
   xmlns="http://www.w3.org/2000/svg"
   viewBox="0 0 682.66669 682.66669"
   height="682.66669"
   width="682.66669"
   xml:space="preserve"
   id="svg2"
   version="1.1"><metadata
     id="metadata8"><rdf:RDF><cc:Work
         rdf:about=""><dc:format>image/svg+xml</dc:format><dc:type
           rdf:resource="http://purl.org/dc/dcmitype/StillImage" /></cc:Work></rdf:RDF></metadata><defs
     id="defs6" /><g
     transform="matrix(1.3333333,0,0,-1.3333333,0,682.66667)"
     id="g10"><g
       transform="scale(0.1)"
       id="g12"><path
         id="path14"
         style="fill:#000000;fill-opacity:1;fill-rule:nonzero;stroke:none"
         d="m 4333.95,5117.89 c -267.04,-41.99 -491.02,-246.99 -560,-515 -21.02,-80.98 -21.02,-243.98 0,-323.98 20.97,-81.02 85,-208.99 135,-270 87.96,-106.02 230,-195 365,-230 77.96,-20 231.99,-21.02 315.97,-1.02 323.01,75 548.01,376.02 526.02,706.02 -11.02,173 -74.03,308.98 -201.02,436.01 -133.98,132.97 -268.98,192.97 -450.97,198.99 -55,1.99 -113.01,1.01 -130,-1.02 z m 268.98,-192.97 c 78.98,-28.01 143.01,-70 203.01,-134.02 88.98,-95 130,-188.01 138.98,-316.99 15,-197 -100.97,-401.02 -275.97,-487 -83.01,-41.01 -136.02,-51.99 -236.02,-53 -138.01,0 -248.98,45 -350,141.99 -105,101.01 -153.98,219.02 -153.98,371.99 0.97,236.02 156.99,432.03 392.96,492.03 70,17.97 206.02,10.98 281.02,-15 z" /><path
         id="path16"
         style="fill:#000000;fill-opacity:1;fill-rule:nonzero;stroke:none"
         d="m 4506.91,4774.92 c -52.96,-17.03 -97.96,-53.01 -125,-99.02 -22.96,-38.99 -27.96,-60 -30.97,-138.99 l -4.03,-93 h -167.96 v -170 h 170 v -170 h 168.98 l 3.01,83 3.01,82 82.96,3 82.04,3.01 v 168.99 h -170 v 68 c 0,53.99 3.98,72 17.96,85 10,10 24.03,17 30,17 20,0 42.04,-31.02 42.04,-61.02 v -28.98 h 172.96 l -5.97,56.01 c -8.01,73.99 -49.03,140.98 -104.03,171.99 -45.97,25 -123.98,35.98 -165,23.01 z" /><path
         id="path18"
         style="fill:#000000;fill-opacity:1;fill-rule:nonzero;stroke:none"
         d="m 3744.92,3874.92 c -25,-33.01 -45.97,-63.01 -45.97,-68.01 0.97,-8 103.98,-96.01 120,-101.01 7.96,-3.01 100,106.01 107.96,128.01 3.01,6.99 -120,100 -131.99,100 -3.01,0 -25,-27 -50,-58.99 z" /><path
         id="path20"
         style="fill:#000000;fill-opacity:1;fill-rule:nonzero;stroke:none"
         d="m 2368.95,3732.89 c -91.02,-40.98 -139.03,-111.99 -148.01,-216.99 -5,-60.98 -6.02,-63.99 -56.02,-108.01 -128.01,-112.97 -308.98,-215.98 -483.01,-272.97 -132.96,-44.02 -150,-46.01 -157.96,-21.01 -15,48 -33.01,50 -502.04,50 -477.961,0 -476.988,0 -501.988,-58.01 -15,-31.99 -15,-31.99 -86.992,-31.99 -171.02,0 -313.008,-87 -388.9808,-238.01 C 4.92188,2758.91 -3.08984,2695.9 0.941406,2529.92 3.94922,2388.91 6.91016,2374.92 33.9492,2315.9 109.922,2147.89 253.949,2053.91 432.93,2053.91 c 71.992,0 71.992,0 86.992,-32 20,-46.99 50,-58 156.988,-58 h 92.039 v -317 c 0,-188 3.981,-333 10,-355 15.973,-56.01 68.981,-119.02 125,-146.99 38.981,-21.01 63.981,-26.01 120.001,-26.01 105.97,0 176.99,43 227.96,138.98 21.02,40 22.04,53.01 25,374.02 l 3.01,332 h 90 c 93.01,0 141.02,13.98 151.99,45 14.03,33.98 380,-117 525,-217 172.04,-119.02 169.03,-116.01 174.03,-183 11.99,-141.02 113.01,-233.99 253.98,-235 110,0 215,76.99 244.03,178 13.98,50.98 13.98,1973.01 0,2023.99 -17.04,59.02 -69.03,120 -129.03,151.01 -68.98,33.99 -153.98,37 -220.97,5.98 z m 165,-173.98 25,-23.99 V 1592.89 l -25,-23.98 c -16.02,-17 -35,-25 -60,-25 -25,0 -44.03,8 -60,25 l -25,23.98 v 1942.03 l 25,23.99 c 32.96,33.98 86.99,33.98 120,0 z m -317.04,-1340 -2.96,-333.99 -65,45 c -99.03,70 -299.03,163.99 -463.01,218.99 l -146.99,50 v 721.01 l 77.96,17.97 c 165,39.02 355,123.01 507.04,225 l 90,60 2.96,-333.98 c 1.02,-183.99 1.02,-486.02 0,-670 z m -852.96,345 v -425 H 683.949 l -3.008,415 c -1.019,228 0,421.01 3.008,428 2.961,10 76.992,12 341.991,10 l 338.01,-3 z m -855.001,-1.02 v -340.98 l -77.039,3.99 c -86.988,4.02 -132.961,21.99 -181.988,70 -63.012,61.99 -75,99.02 -78.981,243.01 -4.031,143.98 3.981,188.98 43.981,251.01 49.027,75 121.988,111.99 226.988,112.97 l 67.039,1.02 z m 600.001,-910 v -310.98 l -29.03,-29.02 c -30.97,-30.98 -58.98,-35.98 -93.979,-16.99 -46.019,24.02 -46.019,26.99 -46.992,356.01 v 312 h 170.001 z" /><path
         id="path22"
         style="fill:#000000;fill-opacity:1;fill-rule:nonzero;stroke:none"
         d="m 918.949,2738.91 v -85 h 170.971 l -3.01,83 -2.96,82 -82.04,3 -82.961,3.01 z" /><path
         id="path24"
         style="fill:#000000;fill-opacity:1;fill-rule:nonzero;stroke:none"
         d="m 918.949,2388.91 v -86.02 l 82.961,3.01 82.04,3.01 2.96,83 3.01,82 H 918.949 Z" /><path
         id="path26"
         style="fill:#000000;fill-opacity:1;fill-rule:nonzero;stroke:none"
         d="m 3516.91,3630.9 -57.96,-51.99 47.96,-62 c 26.02,-34.02 52.04,-63 57.04,-63 5.97,0 37.96,25 72.96,56.99 l 63.01,56.01 -56.99,58.01 c -31.99,32.97 -61.02,58.99 -63.98,58.99 -3.01,-1.02 -31.02,-23.99 -62.04,-53.01 z" /><path
         id="path28"
         style="fill:#000000;fill-opacity:1;fill-rule:nonzero;stroke:none"
         d="m 3251.91,3446.91 c -35,-19.02 -62.96,-39.02 -62.96,-44.02 0,-5 15.97,-40.98 35,-80 l 35.97,-70 31.99,19.02 c 18.01,10.98 51.02,30 75,42 23.01,13 42.04,26.99 42.04,31.01 0,11.99 -81.02,138.99 -89.03,137.97 -3.01,0 -33.98,-15.98 -68.01,-35.98 z" /><path
         id="path30"
         style="fill:#000000;fill-opacity:1;fill-rule:nonzero;stroke:none"
         d="m 2963.95,3318.91 c -33.01,-12 -66.02,-23.01 -73.01,-26.02 -11.02,-3.98 -11.99,-12.97 -1.99,-48.98 5.97,-25 15.97,-62 20.97,-82 l 9.03,-36.01 75.97,23.01 c 41.99,13 81.02,28 86.02,33 8.01,8.01 -35,138.01 -51.02,152 -3.01,3 -33.01,-3.99 -65.97,-15 z" /><path
         id="path32"
         style="fill:#000000;fill-opacity:1;fill-rule:nonzero;stroke:none"
         d="m 4233.95,3322.89 c -187.04,-26.99 -391.02,-150 -499.03,-301.99 -105.97,-150 -148.01,-278.99 -148.01,-456.99 0,-138.99 22.04,-233.99 82.04,-348.99 76.99,-148.01 181.99,-254.02 330,-330 116.99,-61.01 212.96,-85 350,-85 225.97,0 407.96,77.97 560,240.98 172.96,185 243.98,430 193.98,671.01 -83.01,403.99 -460,668.99 -868.98,610.98 z m 302.96,-193.98 c 147.04,-47 275,-157 346.02,-298.01 163.98,-325 -1.02,-720 -348.98,-833.99 -102.04,-33 -247.04,-36.99 -340,-9.02 -166.02,50 -301.02,161.02 -372.04,307.03 -50.97,105 -63.98,160.98 -63.98,268.99 0,106.99 13.01,163 61.99,266.99 81.02,169.02 256.99,296.99 454.03,326.99 60,9.02 186.99,-5 262.96,-28.98 z" /><path
         id="path34"
         style="fill:#000000;fill-opacity:1;fill-rule:nonzero;stroke:none"
         d="m 4398.95,2887.89 c -82.04,-35 -130,-110.98 -130,-203.98 0,-33.99 -4.03,-60 -10,-60 -6.02,0 -60,25 -120,55 -60,30 -121.02,55 -135,55 -36.02,0 -75,-42 -75,-80 0,-51.02 50,-231.02 77.96,-283.99 38.01,-71.01 109.03,-139.02 183.01,-177.03 59.03,-30.98 71.02,-33.98 159.03,-33.98 81.99,0 102.96,3.98 150.97,26.01 69.03,32.97 126.99,88.99 160,155 18.01,37.97 25,68.99 26.99,136.99 l 4.03,87 h 88.01 v 170 h -43.01 c -41.02,0 -45,1.99 -61.99,38.98 -48.01,107.03 -173.01,159.02 -275,115 z m 110,-167.97 c 7.96,-11.01 10.97,-57.03 7.96,-158.01 -2.96,-124.02 -5.97,-146.99 -22.96,-170 -46.02,-63 -151.02,-86.01 -223.01,-49.02 -45,23.01 -96.99,74.02 -119.03,115 -13.98,27.03 -13.98,28.01 3.01,21.02 101.99,-43.01 143.01,-43.99 205,-2 50,33.01 71.02,78.01 76.99,160 2.04,40 9.03,78.01 14.03,85 13.98,15.98 43.01,15 58.01,-1.99 z" /><path
         id="path36"
         style="fill:#000000;fill-opacity:1;fill-rule:nonzero;stroke:none"
         d="m 2902.93,2640.9 c -3.01,-8.01 -3.98,-46.99 -1.99,-88.01 l 3.01,-73.98 82.96,-3.01 82.04,-3.01 v 181.02 h -80 c -58.01,0 -82.04,-3.99 -86.02,-13.01 z" /><path
         id="path38"
         style="fill:#000000;fill-opacity:1;fill-rule:nonzero;stroke:none"
         d="m 3242.93,2640.9 c -3.01,-8.01 -3.98,-46.99 -1.99,-88.01 l 3.01,-73.98 82.96,-3.01 82.04,-3.01 v 181.02 h -80 c -58.01,0 -82.04,-3.99 -86.02,-13.01 z" /><path
         id="path40"
         style="fill:#000000;fill-opacity:1;fill-rule:nonzero;stroke:none"
         d="m 2908.95,1960.9 c -6.02,-23.01 -15,-58.01 -21.02,-76.99 -5,-18.99 -8.98,-38.01 -8.98,-42 0,-5 125.97,-48 146.99,-49.02 11.99,-0.98 63.98,144.02 55,153.01 -5,5 -44.03,20 -86.02,33.01 l -75.97,23 z" /><path
         id="path42"
         style="fill:#000000;fill-opacity:1;fill-rule:nonzero;stroke:none"
         d="m 3223.95,1804.92 c -19.03,-39.02 -35,-75 -35,-80 0,-7.03 121.99,-81.01 133.98,-81.01 6.02,0 86.02,130 86.02,138.98 0,4.02 -19.03,18.01 -42.04,31.02 -23.98,11.99 -56.99,31.01 -75,41.99 l -31.99,19.02 z" /><path
         id="path44"
         style="fill:#000000;fill-opacity:1;fill-rule:nonzero;stroke:none"
         d="m 3532.93,1645.9 c -11.02,-15 -31.99,-43.01 -46.99,-63.01 l -26.99,-35.98 60.97,-53 61.02,-53.01 60,59.02 58.98,58.99 -63.01,58 c -33.98,30.98 -66.99,57 -72.96,55.98 -5,0 -19.03,-11.99 -31.02,-26.99 z" /><path
         id="path46"
         style="fill:#000000;fill-opacity:1;fill-rule:nonzero;stroke:none"
         d="m 3756.91,1375.9 c -30.97,-25.98 -56.99,-50.98 -56.99,-55 -0.97,-10 86.99,-126.99 95,-126.99 11.99,0 135,93 131.99,100 -5.97,16.99 -97.96,130 -105,130 -5,0 -33.98,-22 -65,-48.01 z" /><path
         id="path48"
         style="fill:#000000;fill-opacity:1;fill-rule:nonzero;stroke:none"
         d="m 3982.93,1169.92 c -28.01,-13.01 -65,-41.01 -81.99,-62.03 -61.02,-73.98 -63.01,-90 -60,-524.999 3.01,-381.993 3.98,-395 25,-433.981 25,-47 73.98,-94.9998 123.01,-121.0194 32.96,-17.96872 65,-18.98044 490,-18.98044 446.99,0 455.97,0 495,21.98824 46.99,25 95,74.0236 120.97,123.0116 16.99,31.988 19.03,66.988 21.99,428.981 3.01,434.999 1.02,451.019 -60,524.999 -16.99,21.02 -53.98,49.02 -81.99,62.03 l -50.97,23.99 h -890 z m 936.99,-165 c 23.01,-18.01 24.03,-24.998 26.99,-169.998 l 3.01,-151.012 h -138.01 l -17.96,48 c -12.04,30 -41.02,68.988 -80,108.988 -52.04,51.012 -72.04,64.024 -129.03,81.993 -85.97,26.019 -125.97,26.019 -211.99,0 -56.99,-17.969 -76.99,-30.981 -128.98,-81.993 -39.03,-40 -68.01,-78.988 -80,-108.988 l -18.01,-48 h -138.01 l 3.01,151.012 c 3.01,145 3.98,151.988 26.99,169.998 21.99,17.97 45,18.99 441.02,18.99 395.97,0 418.98,-1.02 440.97,-18.99 z M 4528.95,763.91 c 40.97,-11.019 93.98,-61.019 108.98,-103.012 26.02,-68.988 -1.02,-155 -61.02,-198.988 -25.97,-18 -45.97,-23 -97.96,-23 -77.04,0 -119.03,23.981 -150,85 -36.02,70 -21.02,148 36.99,203 45.97,43.012 98.98,55 163.01,37 z m -355,-307 c 53.98,-120 170,-193 305,-193 135,0 250.97,73 305,193 l 25.97,57 h 139.03 v -282 l -58.01,-58 h -824.03 l -28.98,28.981 -28.98,29.019 v 282 h 138.98 z" /></g></g></svg>